<?xml version="1.0" standalone="no"?>
<!DOCTYPE svg PUBLIC "-//W3C//DTD SVG 20010904//EN"
 "http://www.w3.org/TR/2001/REC-SVG-20010904/DTD/svg10.dtd">
<svg version="1.0" xmlns="http://www.w3.org/2000/svg"
 width="148.000000pt" height="148.000000pt" viewBox="0 0 148.000000 148.000000"
 preserveAspectRatio="xMidYMid meet">
<metadata>
Created by potrace 1.14, written by Peter Selinger 2001-2017
</metadata>
<g transform="translate(0.000000,148.000000) scale(0.100000,-0.100000)"
fill="#000000" stroke="none">
<path d="M1037 1354 c-1 -1 -22 -5 -47 -8 -25 -3 -60 -10 -77 -15 -18 -5 -33
-7 -33 -4 0 3 -7 0 -15 -7 -8 -7 -15 -10 -15 -7 0 11 -185 -60 -300 -116 -106
-51 -237 -125 -268 -151 -7 -6 -43 -35 -80 -65 -57 -47 -87 -78 -147 -154 -38
-48 -50 -85 -50 -157 0 -62 5 -85 29 -134 28 -57 98 -148 169 -218 47 -47 174
-148 186 -148 5 0 11 -4 13 -8 1 -4 32 -18 68 -29 78 -26 209 -25 305 1 68 19
193 80 263 128 77 53 198 175 249 252 27 39 50 73 53 76 3 3 15 28 28 55 13
28 30 62 38 78 8 15 12 27 9 27 -3 0 -1 9 5 21 6 11 13 28 15 37 2 9 11 49 20
87 10 39 19 115 20 169 3 89 1 104 -20 145 -30 57 -42 71 -80 98 -53 37 -135
54 -240 52 -53 -2 -97 -4 -98 -5z"/>
</g>
</svg>
